<?xml version="1.0" encoding="UTF-8" standalone="no"?>
<!-- Created with Inkscape (http://www.inkscape.org/) -->

<svg
   version="1.1"
   id="svg1"
   width="764.70892"
   height="618.00006"
   viewBox="0 0 764.70892 618.00006"
   sodipodi:docname="Rabbit.svg"
   inkscape:version="1.4.2 (ebf0e940d0, 2025-05-08)"
   xmlns:inkscape="http://www.inkscape.org/namespaces/inkscape"
   xmlns:sodipodi="http://sodipodi.sourceforge.net/DTD/sodipodi-0.dtd"
   xmlns:xlink="http://www.w3.org/1999/xlink"
   xmlns="http://www.w3.org/2000/svg"
   xmlns:svg="http://www.w3.org/2000/svg">
  <defs
     id="defs1">
    <linearGradient
       id="linearGradient29"
       inkscape:collect="always">
      <stop
         style="stop-color:#2e9cdf;stop-opacity:0;"
         offset="0.07758143"
         id="stop28" />
      <stop
         style="stop-color:#2e9cdf;stop-opacity:1;"
         offset="1"
         id="stop29" />
    </linearGradient>
    <linearGradient
       id="linearGradient27"
       inkscape:collect="always">
      <stop
         style="stop-color:#2e9cdf;stop-opacity:0;"
         offset="0.0483142"
         id="stop26" />
      <stop
         style="stop-color:#2e9cdf;stop-opacity:1;"
         offset="1"
         id="stop27" />
    </linearGradient>
    <linearGradient
       id="swatch25"
       inkscape:swatch="solid">
      <stop
         style="stop-color:#000000;stop-opacity:1;"
         offset="0"
         id="stop25" />
    </linearGradient>
    <linearGradient
       id="linearGradient19"
       inkscape:collect="always">
      <stop
         style="stop-color:#2e9cdf;stop-opacity:0;"
         offset="0"
         id="stop20" />
      <stop
         style="stop-color:#2e9cdf;stop-opacity:1;"
         offset="1"
         id="stop19" />
    </linearGradient>
    <linearGradient
       inkscape:collect="always"
       xlink:href="#linearGradient19"
       id="linearGradient20"
       x1="35.767139"
       y1="207.97931"
       x2="287.46185"
       y2="207.97931"
       gradientUnits="userSpaceOnUse"
       gradientTransform="matrix(1.6052631,0,0,1,134.66712,-13.247089)" />
    <linearGradient
       inkscape:collect="always"
       xlink:href="#linearGradient27"
       id="linearGradient21"
       gradientUnits="userSpaceOnUse"
       gradientTransform="matrix(0.60000001,0,0,1,170.82432,281.74386)"
       x1="35.767139"
       y1="207.97931"
       x2="287.46185"
       y2="207.97931" />
    <linearGradient
       inkscape:collect="always"
       xlink:href="#linearGradient19"
       id="linearGradient22"
       gradientUnits="userSpaceOnUse"
       gradientTransform="matrix(1.9526315,0,0,1,120.94131,83.765827)"
       x1="35.767139"
       y1="207.97931"
       x2="287.46185"
       y2="207.97931" />
    <linearGradient
       inkscape:collect="always"
       xlink:href="#linearGradient19"
       id="linearGradient23"
       gradientUnits="userSpaceOnUse"
       gradientTransform="matrix(1.0263158,0,0,1,153.74052,181.54331)"
       x1="35.767139"
       y1="207.97931"
       x2="287.46185"
       y2="207.97931" />
    <linearGradient
       inkscape:collect="always"
       xlink:href="#linearGradient29"
       id="linearGradient24"
       gradientUnits="userSpaceOnUse"
       gradientTransform="matrix(0.38947371,0,0,1,176.83677,381.7904)"
       x1="35.767139"
       y1="207.97931"
       x2="287.46185"
       y2="207.97931" />
  </defs>
  <sodipodi:namedview
     id="namedview1"
     pagecolor="#ffffff"
     bordercolor="#000000"
     borderopacity="0.25"
     inkscape:showpageshadow="2"
     inkscape:pageopacity="0.0"
     inkscape:pagecheckerboard="0"
     inkscape:deskcolor="#d1d1d1"
     inkscape:zoom="0.75488281"
     inkscape:cx="482.19405"
     inkscape:cy="315.94308"
     inkscape:window-width="1680"
     inkscape:window-height="1018"
     inkscape:window-x="48"
     inkscape:window-y="25"
     inkscape:window-maximized="1"
     inkscape:current-layer="g1" />
  <g
     inkscape:groupmode="layer"
     inkscape:label="Image"
     id="g1"
     transform="translate(-190.4489,-102.21863)">
    <rect
       style="fill:url(#linearGradient20);fill-opacity:1;fill-rule:nonzero;stroke:none;stroke-width:30.4723;stroke-linecap:round;stroke-linejoin:round;stroke-dasharray:none;stroke-opacity:1;paint-order:stroke fill markers"
       id="rect19"
       width="404.03625"
       height="58.287193"
       x="192.08279"
       y="165.58862" />
    <rect
       style="fill:url(#linearGradient21);fill-opacity:1;fill-rule:nonzero;stroke:none;stroke-width:18.6298;stroke-linecap:round;stroke-linejoin:round;stroke-dasharray:none;stroke-opacity:1;paint-order:stroke fill markers"
       id="rect19-6"
       width="151.01683"
       height="58.287193"
       x="192.28461"
       y="460.57959" />
    <rect
       style="fill:url(#linearGradient24);fill-opacity:1;fill-rule:nonzero;stroke:none;stroke-width:15.0097;stroke-linecap:round;stroke-linejoin:round;stroke-dasharray:none;stroke-opacity:1;paint-order:stroke fill markers"
       id="rect19-6-3"
       width="98.028473"
       height="58.287193"
       x="190.76714"
       y="560.62616" />
    <rect
       style="fill:url(#linearGradient22);fill-opacity:1;fill-rule:nonzero;stroke:none;stroke-width:33.6081;stroke-linecap:round;stroke-linejoin:round;stroke-dasharray:none;stroke-opacity:1;paint-order:stroke fill markers"
       id="rect19-6-9"
       width="491.46701"
       height="58.287193"
       x="190.78136"
       y="262.60156" />
    <rect
       style="fill:url(#linearGradient23);fill-opacity:1;fill-rule:nonzero;stroke:none;stroke-width:24.3654;stroke-linecap:round;stroke-linejoin:round;stroke-dasharray:none;stroke-opacity:1;paint-order:stroke fill markers"
       id="rect19-6-9-1"
       width="258.31824"
       height="58.287193"
       x="190.4489"
       y="360.37903" />
    <path
       style="fill:#000000"
       d="m 592.22417,719.99196 -3.56634,-0.22667 -88,-0.55116 -88,-0.55116 -6,-1.74379 -6,-1.74379 -6.19467,-3.0138 -6.19468,-3.01381 -4.46491,-4.3394 -4.46492,-4.33941 -1.78432,-3.37517 -1.78432,-3.37517 -0.34936,-9.5 -0.34935,-9.5 2.59198,-10.5 2.59198,-10.5 0.51183,-2.5 0.51184,-2.5 -5.81055,-2.99639 -5.81055,-2.9964 -6.99832,-5.25601 -6.99832,-5.25602 -6.50168,0.75241 -6.50168,0.75241 -10,-0.1005 -10,-0.10049 -8.48429,-1.72742 -8.48429,-1.72741 -7.72427,-2.97879 -7.72426,-2.9788 -7.50407,-4.8987 -7.50406,-4.89871 -5.97953,-6.07309 -5.97953,-6.07308 -4.61731,-6.94543 -4.61731,-6.94543 -2.53274,-6.23312 -2.53275,-6.23312 -1.10127,-8.72483 -1.10128,-8.72483 1.59777,-9.01421 1.59777,-9.0142 3.64552,-7.57935 3.64552,-7.57934 5.7167,-5.84232 5.71671,-5.84231 6.23347,-3.14665 6.23347,-3.14665 6.75001,-1.59206 6.75002,-1.59206 8.60408,0.53206 8.60407,0.53206 3.76805,1.57439 3.76805,1.57439 h 1.18014 1.18013 l 3.17331,-12.55039 3.17331,-12.55039 4.20409,-10.55491 4.20409,-10.5549 4.92447,-8.6447 4.92447,-8.64471 7.07807,-9.5 7.07806,-9.5 12.56781,-12.86437 12.5678,-12.86437 9.45608,-7.92046 9.45608,-7.92047 11.54392,-7.76703 11.54392,-7.76702 12.5,-6.59145 12.5,-6.59145 11.86033,-4.66394 11.86032,-4.66394 13.39464,-3.433 13.39464,-3.43299 12.24503,-1.62394 12.24504,-1.62393 19,0.5722 19,0.57221 13.5,2.0326 13.5,2.0326 12.00549,2.93488 12.00548,2.93488 9.85768,3.1577 9.85768,3.15769 11.63684,4.79765 11.63683,4.79764 7.71613,3.57847 7.71612,3.57847 0.40256,-0.70931 0.40256,-0.70932 1.27659,-4 1.27659,-4 2.67928,-5.56503 2.67929,-5.56504 3.82694,-6.20013 3.82694,-6.20014 -0.4015,-0.33757 -0.4015,-0.33758 -7.5,-4.30443 -7.5,-4.30443 -12.5,-8.17675 -12.5,-8.17676 -11.47966,-8.91607 -11.47966,-8.91607 -12.59325,-12.5 -12.59324,-12.5 -6.19332,-8.67812 -6.19332,-8.67811 -5.89146,-11.32189 -5.89146,-11.32188 -4.9971,-13.5 -4.9971,-13.5 -1.72,-7.8597 -1.72001,-7.85971 0.65276,-5.55389 0.65275,-5.5539 2.15612,-3.83631 2.15613,-3.83631 4.42106,-2.1402 4.42106,-2.1402 7.64859,0.58982 7.6486,0.58982 12.99625,3.39855 12.99626,3.39855 9.83397,3.59176 9.83398,3.59177 -0.49357,-1.28623 -0.49357,-1.28622 -3.05293,-9.9038 -3.05294,-9.9038 -1.97243,-8.5 -1.97243,-8.5 -0.6574,-6.52457 -0.65739,-6.52456 1.09254,-5.91009 1.09254,-5.91009 2.10223,-4.34263 2.10222,-4.34262 2.84793,-1.47272 2.84793,-1.47272 h 4.65216 4.65215 l 9.14751,3.05646 9.1475,3.05646 7.5,4.09487 7.5,4.09488 7.27747,4.89768 7.27747,4.89767 10.22253,8.1789 10.22253,8.1789 12.59623,12.65706 12.59623,12.65706 10.34578,12.86503 10.34577,12.86503 7.86066,12 7.86065,12 6.97728,13.74135 6.97728,13.74135 4.36628,11.25865 4.36628,11.25865 2.25063,7.09481 2.25063,7.09482 9.24201,1.63756 9.24201,1.63756 10.84739,3.55334 10.8474,3.55335 10.01374,4.79045 10.01375,4.79046 8.46089,5.2555 8.4609,5.2555 8.5391,6.65835 8.53911,6.65836 8.40101,8.46515 8.40102,8.46515 5.96765,7.50966 5.96764,7.50965 5.9234,8.80936 5.9234,8.80936 5.40858,10.22581 5.40857,10.2258 1.54936,5.9601 1.54937,5.9601 v 7.6084 7.6084 l -1.58975,5.4315 -1.58974,5.4315 -3.90969,7.86467 -3.90969,7.86467 -4.41885,6.63533 -4.41884,6.63533 -5.75181,6.34524 -5.75181,6.34523 -6.37837,4.82856 -6.37837,4.82855 -8.77992,4.53465 -8.77992,4.53465 -7.92162,3.06481 -7.92162,3.06482 -9,2.46022 -9,2.46022 -5.5,1.14104 -5.5,1.14104 -20.86847,0.62548 -20.86848,0.62549 -2.81136,8.63265 -2.81137,8.63266 -4.20075,8.36734 -4.20076,8.36735 -7.89326,11.65674 -7.89327,11.65675 -7.33253,8.38713 -7.33254,8.38713 -8.6436,7.86836 -8.64361,7.86835 v 1.26968 1.26967 l 2.75,1.92341 2.75,1.92341 14.5,7.7482 14.5,7.74821 9.67684,6.40191 9.67684,6.40192 4.10589,4.74456 4.10588,4.74457 3.71728,7.44814 3.71727,7.44813 -0.0317,10.55187 -0.0317,10.55186 -2.38076,6 -2.38076,6 -6.08751,6.05508 -6.08751,6.05509 -6,1.94491 -6,1.94492 -10.5,-0.006 -10.5,-0.006 -7.5,-3.12935 -7.5,-3.12935 -29.5,-13.98789 -29.5,-13.98789 -17.37758,-7.67718 -17.37758,-7.67718 -6.1081,-3.08337 -6.10811,-3.08336 -6.51431,-4.06103 -6.51432,-4.06102 -5.50499,-4.17552 -5.50499,-4.17552 -3.29142,-3.07465 -3.29143,-3.07465 -4.34069,1.86063 -4.34069,1.86064 -7.36289,2.05216 -7.3629,2.05216 -17,1.99245 -17,1.99246 -14,1.03525 -14,1.03525 -0.75,0.004 -0.75006,0.005 v 1.5 1.5 h 6.69705 6.69704 l 11.55296,1.11244 11.55295,1.11244 9.42106,2.37335 9.42106,2.37336 6.07894,2.85406 6.07894,2.85407 6.5,5.22636 6.5,5.22637 4.17059,5.07987 4.17059,5.07988 2.75704,5.06559 2.75703,5.06559 0.44785,7.73634 0.44785,7.73634 -2.65205,4.52539 -2.65206,4.52539 -4.22342,2.44944 -4.22342,2.44943 -5.93366,1.07714 -5.93366,1.07715 z m -12.2864,-27.00283 12.27993,0.2295 -2.20939,-2.98836 -2.20938,-2.98836 -3.57055,-2.45947 -3.57055,-2.45948 -6.5,-3.02927 -6.5,-3.02928 -7.90379,-2.02131 -7.9038,-2.02131 -13.5962,-2.10007 -13.59621,-2.10007 -24,-0.51919 -24,-0.51918 -2.72036,-1.39268 -2.72035,-1.39267 -1.09305,-2.04239 -1.09305,-2.04238 -0.0555,-4.01848 -0.0555,-4.01847 2.86886,-3.02501 2.86887,-3.025 8,-4.02969 8,-4.02968 7.30039,-5.03384 7.3004,-5.03383 6.79994,-7.28131 6.79995,-7.28132 6.23605,-9.10488 6.23605,-9.10488 3.83224,-8.20407 3.83223,-8.20407 1.63802,-6.36297 1.63803,-6.36296 0.56445,-8.13704 0.56445,-8.13703 -1.60386,-8.5 -1.60387,-8.5 -3.59471,-7.29624 -3.59471,-7.29623 -5.98503,-6.39802 -5.98503,-6.39801 -5.6875,-3.78274 -5.68749,-3.78273 -8.5,-3.19582 -8.5,-3.19582 -10.20343,-1.51709 -10.20343,-1.51709 -1.80776,-0.96748 -1.80776,-0.96748 -1.82355,-2.01501 -1.82356,-2.01501 -0.54318,-4.04969 -0.54318,-4.04969 3.67675,-3.67675 3.67674,-3.67674 12.70118,0.60731 12.70118,0.60732 6.5,1.65546 6.5,1.65546 8.11883,3.75971 8.11884,3.75971 5.88116,4.03723 5.88117,4.03724 6.1124,6.3391 6.11241,6.3391 3.17916,4.74059 3.17917,4.74059 3.94827,8.25941 3.94828,8.25941 2.18163,8 2.18163,8 0.009,16.5 0.009,16.5 -2.6876,8.78832 -2.6876,8.78832 -3.60491,7.15839 -3.60491,7.15839 -2.38836,3.78342 -2.38749,3.78342 v 1.13341 1.13342 l 4.75,-0.65737 4.75,-0.65736 10.5,-2.01596 10.5,-2.01596 5,-1.5794 5,-1.5794 6,-3.00007 6,-3.00006 7,-7.11076 7,-7.11075 4.08011,-7 4.08011,-7 4.79217,-10.5 4.79217,-10.5 1.89455,-2.678 1.89454,-2.678 3.39742,-1.12125 3.39742,-1.12125 3.62174,1.51326 3.62175,1.51326 1.5802,3.78197 1.58021,3.78196 -1.2446,7.00402 -1.2446,7.00403 -3.42115,10 -3.42115,10 -5.10413,10.38689 -5.10412,10.3869 1.71619,3.18677 1.71619,3.18677 6.41459,5.08527 6.41458,5.08527 11.77291,5.97418 11.7729,5.97417 15.5,6.71456 15.5,6.71456 24.5,11.78142 24.5,11.78142 6.88074,2.705 6.88074,2.70499 3.16684,0.51391 3.16685,0.51391 3.62463,-1.51447 3.62464,-1.51447 1.70224,-2.59795 1.70225,-2.59796 0.50321,-4.46447 0.50321,-4.46447 -2.67191,-5.46119 -2.67191,-5.46118 -5.48525,-5.01321 -5.48525,-5.01321 -15.72051,-7.93027 -15.72052,-7.93027 -15.62223,-6.16598 -15.62224,-6.16598 -2.16736,-2.30706 -2.16737,-2.30706 -0.58348,-3.59553 -0.58347,-3.59552 2.61109,-4.45548 2.61108,-4.45548 13.76199,-12.78798 13.76199,-12.78797 9.79724,-9.95361 9.79724,-9.95362 7.40578,-9.83125 7.40577,-9.83124 3.49548,-7.26956 3.49547,-7.26955 1.574,-6 1.57399,-6 0.56784,-7.5 0.56785,-7.5 0.99296,-3.26739 0.99296,-3.26739 2.98088,-1.54148 2.98088,-1.54147 9.80516,1.55887 9.80516,1.55886 h 14.0313 14.03129 l 11.34938,-1.96326 11.34937,-1.96325 9,-2.62666 9,-2.62666 8.72199,-4.49686 8.72198,-4.49685 6.97672,-6.45937 6.97671,-6.45936 3.5513,-4.83784 3.5513,-4.83784 v -1.46104 -1.46103 l -1.91229,-1.7306 -1.91229,-1.7306 -1.83771,-0.26233 -1.83771,-0.26233 -1.24416,-3.72302 -1.24416,-3.72301 1.51497,-2.92963 1.51497,-2.92962 2.41245,-1.5807 2.41245,-1.5807 4.31674,0.63414 4.31674,0.63413 2,-1.4827 2,-1.48269 -0.10128,-4.33016 -0.10128,-4.33016 -5.15027,-10.23491 -5.15026,-10.23492 -4.12686,-6.76508 -4.12686,-6.76509 -6.23424,-8 -6.23424,-8 -9.91962,-9.5 -9.91962,-9.5 -8.94185,-5.99341 -8.94186,-5.99341 -8.52588,-4.2834 -8.52588,-4.28339 -10.5,-3.386 -10.5,-3.38601 -11,-1.63831 -11,-1.63831 -6.38309,-0.88196 -6.38308,-0.88197 -0.84041,-0.84041 -0.84041,-0.84041 -1.44188,-7.4765 -1.44189,-7.47651 -3.96769,-12 -3.96769,-12 -4.68504,-10.66074 -4.68503,-10.66075 -5.06529,-8.83925 -5.06528,-8.83926 -5.53559,-8.41072 -5.53559,-8.41072 -7.95628,-10.08928 -7.95627,-10.08928 -15.62475,-15.50981 -15.62474,-15.50982 -10.47884,-7.97365 -10.47884,-7.97365 -7.93077,-4.76654 -7.93077,-4.76653 h -0.97807 -0.97807 l 0.61738,5.25294 0.61738,5.25294 3.54917,10.99706 3.54918,10.99706 7.85296,16 7.85295,16 22.92762,23 22.92762,23 8.35195,10.5 8.35195,10.5 6.89375,10.5 6.89375,10.5 3.61661,7.5 3.61661,7.5 0.43053,5.50245 0.43052,5.50244 -1.85229,1.63306 -1.85228,1.63305 -4,0.45944 -4,0.45943 -2.02806,-0.90432 -2.02805,-0.90433 -8.96631,-12.69061 -8.9663,-12.69061 -8.71758,-10.89734 -8.71758,-10.89734 -9.28621,-10.03917 -9.28622,-10.03917 -10.00184,-8.91239 -10.00185,-8.91239 -10.5,-6.97941 -10.5,-6.9794 -16,-7.88553 -16,-7.88553 -10.5,-3.40576 -10.5,-3.40577 -3.66831,-0.66039 -3.66831,-0.66039 1.41121,6.0493 1.4112,6.04929 3.56372,9.23069 3.56373,9.2307 4.36806,8 4.36807,8 5.20267,7.39426 5.20267,7.39427 7.62265,8.01693 7.62264,8.01693 11.64771,9.72884 11.64771,9.72883 12.85229,8.50386 12.85229,8.50385 14.5,8.2291 14.5,8.2291 4.21771,2.40025 4.21771,2.40024 1.06971,3.97259 1.06971,3.9726 -1.13205,2.11524 -1.13204,2.11524 -7.66951,10.13894 -7.66951,10.13893 -3.2245,7.0551 -3.2245,7.0551 -2.55625,10.33135 -2.55624,10.33135 -1.43514,2.77525 -1.43514,2.77526 -2.65484,2.08829 -2.65484,2.0883 h -2.96032 -2.96032 l -17.65482,-8.4169 -17.65482,-8.41691 -6.03471,-2.50516 -6.03471,-2.50516 -11.94407,-4.1185 -11.94407,-4.11849 -9.61835,-2.43812 -9.61836,-2.43813 -12.90286,-2.10783 -12.90287,-2.10784 -12.5,-0.66348 -12.5,-0.66348 -14.5,0.68423 -14.5,0.68424 -12.27427,2.6079 -12.27427,2.6079 -10.22573,3.5274 -10.22573,3.52741 -13,6.49583 -13,6.49583 -9.98731,6.64676 -9.98731,6.64675 -11.57601,9.69986 -11.57601,9.69986 -7.78219,8.27252 -7.7822,8.27253 -5.7751,7.58648 -5.7751,7.58649 -4.29257,6.97901 -4.29258,6.979 -4.24884,9 -4.24884,9 -3.01311,9.08345 -3.01311,9.08345 -1.52792,7.41655 -1.52792,7.41655 -1.11969,9.24094 -1.11969,9.24095 1.08733,10.8764 1.08734,10.8764 2.05684,7.85278 2.05683,7.85278 3.42433,7.4115 3.42432,7.4115 5.5364,8.23534 5.53639,8.23534 6.73649,6.50353 6.73649,6.50354 7.25423,4.69274 7.25423,4.69273 6.40484,2.99719 6.40485,2.99719 1.17229,1.41253 1.1723,1.41253 -0.0352,3.27705 -0.0352,3.27704 -2.6007,7.5 -2.60071,7.5 -2.46406,9.68122 -2.46413,9.68122 v 2.84627 2.84628 l 1.5607,2.22822 1.56071,2.22821 3.18929,1.74429 3.1893,1.74429 78.5,0.5205 78.5,0.52049 z m 260.32218,-297.77666 -5.60212,-0.006 -3,-1.56027 -3,-1.56027 -2.37888,-2.18357 -2.37888,-2.18357 -1.37112,-3.21788 -1.37112,-3.21788 0.004,-4.28212 0.004,-4.28212 1.95722,-3.20998 1.95723,-3.20998 4.216,-2.79002 4.21601,-2.79002 h 6.7497 6.7497 l 2.82333,2.09195 2.82333,2.09195 2.33651,3.40805 2.33651,3.40805 -0.36739,6.71803 -0.3674,6.71804 -2.06106,2.78196 -2.06107,2.78197 -3.30593,2.25 -3.30594,2.25 z m -504.32068,213.55805 0.33936,-0.33936 -4.94255,-10.35627 -4.94254,-10.35626 -2.59729,-8 -2.59728,-8 -1.58783,-7.5 -1.58783,-7.5 -0.58703,-11.36549 -0.58704,-11.3655 -3.5957,-1.53602 -3.59571,-1.53602 -8,-0.0913 -8,-0.0913 -4.21184,2.24363 -4.21185,2.24364 -2.12684,2.24914 -2.12684,2.24914 -2.41725,4.72848 -2.41726,4.72848 -1.09009,5.08292 -1.0901,5.08293 1.06066,6.02145 1.06066,6.02144 2.52069,5.50591 2.52068,5.50591 6.90441,6.9044 6.9044,6.90441 8.36029,3.95914 8.36028,3.95915 7.70784,1.54769 7.70784,1.54769 2.79216,0.0153 2.79216,0.0153 1.47104,0.93031 1.47104,0.93031 z"
       id="path1" />
    <path
       style="fill:#0f315a;fill-opacity:1;stroke-width:1.32471"
       d="m 459.674,718.02638 c -31.29735,-0.47774 -52.55124,-1.33417 -55.01314,-2.21675 -12.36621,-4.43328 -22.73307,-11.9552 -26.56948,-19.27812 -2.72446,-5.20043 -2.33642,-22.30435 0.77537,-34.17704 3.57118,-13.62542 3.49309,-14.08755 -2.93464,-17.36674 -3.07124,-1.56682 -8.61876,-5.13999 -12.32783,-7.94036 l -6.74375,-5.09158 -15.15989,0.80288 c -31.80748,1.68454 -57.31369,-8.29514 -75.79512,-29.65596 -14.22038,-16.4359 -19.98853,-34.18081 -16.9977,-52.29099 3.99456,-24.18796 18.67143,-40.33211 40.82671,-44.9082 7.79644,-1.61033 14.06075,-1.13019 29.56466,2.26605 3.26221,0.7146 3.44257,0.37656 6.44573,-12.08072 7.70862,-31.97576 20.17218,-53.53898 47.04639,-81.39497 17.06287,-17.68623 28.45045,-27.33786 45.81671,-38.83229 31.48117,-20.83686 64.73384,-33.49388 99.88539,-38.01949 20.54982,-2.64571 59.65409,0.47019 84.91151,6.7659 22.84791,5.69512 47.43409,14.52218 64.62922,23.20354 6.41853,3.24055 8.89212,3.16867 8.89212,-0.25842 0,-1.03637 3.42769,-8.55108 7.61708,-16.69935 5.13811,-9.99348 7.08098,-14.9944 5.96984,-15.36622 -4.0049,-1.34013 -36.585,-22.57535 -47.88974,-31.2138 -17.18394,-13.13102 -35.82559,-31.06778 -44.07211,-42.40564 -17.59066,-24.1848 -34.74877,-67.4486 -32.31274,-81.4759 2.89339,-16.6609 13.17623,-19.71466 41.14045,-12.21771 8.01449,2.1486 18.67151,5.4498 23.68226,7.33599 5.01075,1.88618 9.30395,3.23595 9.54041,2.99948 0.23647,-0.23647 -1.28134,-5.8883 -3.37291,-12.55963 -6.19333,-19.75438 -8.39217,-31.54112 -7.69523,-41.24965 0.67024,-9.33662 4.65492,-19.1237 8.36569,-20.54766 9.59229,-3.6809 32.3676,4.46586 52.93645,18.93546 31.1339,21.90181 56.8973,48.68911 79.79266,82.96381 12.49024,18.69809 27.1098,49.42111 32.7511,68.82652 2.24278,7.71489 2.20035,7.68651 14.79541,9.89342 21.02735,3.68442 48.5916,16.39878 69.65353,32.12858 15.33599,11.45346 22.64984,18.49239 34.10425,32.82234 21.12049,26.42259 33.14841,50.21296 33.15242,65.57309 0.005,17.46316 -19.65505,50.56593 -38.42828,64.70538 -7.78954,5.86685 -24.46448,14.18166 -37.21699,18.55792 -19.86231,6.8161 -31.06308,8.78353 -50.17202,8.81278 -9.83596,0.0151 -19.13008,0.36203 -20.65359,0.77108 -1.97537,0.53034 -3.44711,2.90034 -5.13023,8.26133 -6.63741,21.1412 -23.83056,47.26114 -44.9546,68.29533 -11.68006,11.63039 -14.22244,14.82718 -13.16911,16.55886 0.71793,1.1803 8.11747,5.83171 16.44343,10.33648 31.72037,17.16233 40.74733,24.32068 47.67422,37.80536 3.44746,6.71123 3.89003,8.9112 3.86428,19.20828 -0.0348,13.89211 -2.24457,19.60994 -10.74478,27.80182 -7.38101,7.11329 -14.67168,9.65899 -27.66248,9.65899 -11.2569,0 -14.98028,-1.40239 -56.28034,-21.19759 -9.47167,-4.53979 -29.14359,-13.583 -43.71539,-20.096 -28.05025,-12.53733 -41.19557,-19.98095 -53.77782,-30.45199 l -7.72242,-6.42666 -10.31585,3.49515 c -10.79385,3.6571 -37.19714,7.51363 -62.80365,9.17326 -12.40927,0.80428 -14.41002,1.25171 -14.41002,3.22259 0,2.01149 2.04529,2.3748 16.89004,3.00027 29.28954,1.23408 47.92357,7.85133 62.4866,22.19001 10.26452,10.1064 14.46948,17.94826 14.81908,27.63622 0.34365,9.52266 -2.6221,15.16911 -10.0767,19.18495 -5.13317,2.76528 -6.76912,2.85687 -52.326,2.92968 -25.86494,0.0413 -69.97775,-0.2752 -98.02846,-0.70337 z m 132.47089,-25.77727 c 0,-2.487 -9.6209,-10.00395 -17.46837,-13.64832 -14.50019,-6.73389 -37.85139,-10.48662 -73.04389,-11.73876 -28.86158,-1.0269 -30.90897,-1.62047 -31.54051,-9.14404 -0.53015,-6.31574 2.26289,-9.61739 12.4847,-14.7582 18.88287,-9.49665 30.15402,-19.54452 43.76249,-39.01285 10.27486,-14.69921 14.99083,-26.8141 16.74545,-43.01735 4.02558,-37.17485 -19.08993,-64.94982 -59.566,-71.57288 -6.32293,-1.03461 -12.71212,-2.92104 -14.5718,-4.30238 -4.83215,-3.58925 -5.00039,-8.91963 -0.43379,-13.74391 l 3.74556,-3.95692 12.58474,0.88157 c 16.8932,1.18338 22.39838,2.65643 36.42949,9.74761 29.51133,14.91474 47.02742,44.8447 47.02698,80.35551 -2.1e-4,17.24348 -3.04412,28.92242 -11.73992,45.04388 -6.96255,12.90811 -7.01725,14.31476 -0.51345,13.20373 35.19626,-6.01252 42.94528,-9.11037 55.69446,-22.26507 7.76158,-8.00845 10.54382,-12.27293 18.11412,-27.76431 9.74819,-19.94812 12.18288,-22.37985 19.40983,-19.38635 4.93201,2.04292 6.70946,7.562 5.12539,15.91474 -1.74425,9.19737 -8.20363,27.03429 -13.85153,38.24951 -4.59842,9.13123 -4.68977,9.58877 -2.60625,13.05268 4.85607,8.07325 21.94198,18.13062 56.21489,33.09009 8.37878,3.65716 25.36817,11.53177 37.7542,17.49911 36.39608,17.53491 41.99493,19.43402 48.84994,16.56982 11.10399,-4.63955 10.41502,-20.58475 -1.36822,-31.66558 -7.03223,-6.61303 -28.91368,-18.22291 -50.54415,-26.81777 -31.3109,-12.44137 -31.55959,-16.04381 -2.91179,-42.1778 37.28792,-34.01593 52.14667,-55.0723 55.67979,-78.90385 0.80329,-5.41841 1.74937,-11.79355 2.10239,-14.16698 0.92657,-6.22951 4.86357,-8.30383 13.10278,-6.90359 11.26658,1.91475 45.35532,1.47632 56.89446,-0.73174 22.56926,-4.31871 35.36556,-9.7463 48.24146,-20.46173 8.34772,-6.94704 16.07495,-16.84877 16.07495,-20.59854 0,-1.21795 -1.75409,-2.85672 -3.94149,-3.68237 -2.38434,-0.9 -4.44858,-2.94239 -5.22506,-5.16981 -1.08073,-3.10019 -0.74891,-4.31747 2.09975,-7.70291 2.8977,-3.44372 4.00794,-3.90367 7.73499,-3.20448 2.39342,0.44901 5.60667,0.14472 7.14057,-0.6762 4.86436,-2.60332 3.63005,-9.37443 -4.59438,-25.20364 C 904.30711,360.89344 880.92639,337.1469 851.12549,322.26988 835.828,314.63316 824.65082,311.3125 803.5563,308.13738 l -18.64831,-2.80691 -1.43254,-7.94078 c -5.24385,-29.06734 -24.3741,-68.01751 -48.47876,-98.70522 -10.19422,-12.9783 -36.39255,-39.01613 -48.46612,-48.16921 -10.0688,-7.63325 -26.7761,-18.04437 -28.95679,-18.04437 -4.5101,0 3.02179,25.19086 14.71445,49.21337 l 8.52089,17.50611 24.973,25.25863 c 25.67728,25.97099 33.99232,35.67912 44.3264,51.75282 9.37356,14.5797 14.24853,25.16278 14.24853,30.93216 0,4.49457 -0.51976,5.3912 -3.94841,6.81139 -6.65184,2.75529 -9.43696,0.95676 -18.2806,-11.80493 -22.44778,-32.39299 -53.14914,-65.25002 -74.18655,-79.39556 -21.17803,-14.24007 -61.04893,-31.9868 -71.86355,-31.9868 -3.1149,0 -2.9057,1.53023 2.35432,17.22123 14.01958,41.82136 44.5572,72.70766 106.6943,107.9126 17.70901,10.03338 20.81393,12.62368 20.81393,17.36419 0,1.23919 -3.86788,7.44786 -8.59529,13.79707 -9.98454,13.40987 -14.44454,22.7762 -17.5285,36.81124 -2.36805,10.77693 -7.675,18.84711 -12.39387,18.84711 -1.36184,0 -11.88119,-4.42788 -23.37635,-9.83974 -47.5257,-22.37485 -79.51661,-30.17086 -123.56524,-30.11216 -35.76703,0.0477 -55.29906,4.62158 -86.41483,20.2362 -43.00598,21.58142 -79.17235,57.50044 -96.27301,95.61458 -10.41557,23.21433 -15.54774,50.417 -13.3202,70.60261 1.41571,12.82891 5.27806,27.24206 9.54789,35.62996 4.61054,9.0572 15.03917,23.59914 21.07239,29.38387 5.57914,5.34936 26.68638,18.98403 29.38832,18.98403 2.46693,0 6.17797,4.36052 6.17797,7.25919 0,1.58094 -1.40484,7.00483 -3.12186,12.05308 -1.71703,5.04827 -4.20797,13.78569 -5.53543,19.41648 -2.78532,11.81469 -1.94294,14.89371 5.10233,18.64959 3.81305,2.03276 11.96332,2.28032 85.02456,2.58256 44.44398,0.18384 85.1291,0.47859 90.41138,0.65499 7.60366,0.25392 9.60414,-0.0747 9.60414,-1.57765 z M 336.47607,608.00834 c 0,-0.74678 -2.00262,-5.3667 -4.45026,-10.2665 -8.42893,-16.87341 -14.09567,-38.84931 -14.09567,-54.66377 0,-8.79519 -0.15251,-9.23119 -3.90834,-11.17341 -8.71907,-4.50881 -25.84477,-1.59214 -32.03023,5.45503 -13.06558,14.88579 -10.06152,38.18684 6.98202,54.15613 9.87097,9.2488 25.5397,15.22247 46.50895,17.73141 0.54644,0.0654 0.99353,-0.49212 0.99353,-1.23889 z"
       id="path2" />
    <path
       style="fill:#2e9cdf;fill-opacity:1;stroke:#2e9cdf;stroke-width:2.925;stroke-dasharray:none;stroke-opacity:1"
       d="m 490.1423,691.5184 c -57.75845,-0.492 -80.89958,-1.11657 -82.84674,-2.236 -6.1089,-3.51206 -6.52383,-6.98501 -2.60868,-21.83451 1.98724,-7.53721 4.48416,-15.88269 5.54872,-18.5455 1.06456,-2.66279 1.74453,-6.83563 1.51104,-9.27296 -0.38543,-4.02342 -1.33941,-4.92213 -10.35983,-9.75955 -13.38291,-7.17692 -20.67736,-12.40858 -27.96412,-20.05616 -21.83502,-22.91625 -31.64022,-54.6231 -26.84607,-86.81153 5.14355,-34.5343 21.01638,-66.34399 46.0379,-92.26153 32.88244,-34.05995 69.12458,-54.8496 111.36992,-63.88537 10.58785,-2.26462 17.75209,-2.82085 36.42949,-2.82845 43.94946,-0.0179 75.9553,7.92091 123.93972,30.74219 10.71695,5.09696 21.10474,9.2672 23.08398,9.2672 6.41864,0 10.40477,-6.03343 14.00318,-21.19535 2.98142,-12.5622 8.33211,-23.32138 17.43614,-35.0606 13.18113,-16.99643 12.51509,-18.66425 -13.46945,-33.72895 -53.30948,-30.90652 -77.64107,-52.22263 -95.40839,-83.58421 -7.54838,-13.32383 -16.54252,-38.38432 -13.77604,-38.38432 0.65395,0 7.00827,1.86145 14.12073,4.13656 15.73289,5.03258 40.6014,17.31268 55.92265,27.61466 21.91416,14.73505 48.22323,42.42657 71.40601,75.15811 12.49607,17.64309 15.71204,19.8342 23.59132,16.07324 3.21973,-1.53685 3.81267,-2.67501 4.15538,-7.97647 0.46181,-7.1438 -3.67594,-16.39474 -14.70393,-32.87415 -11.95623,-17.86648 -19.61157,-26.80365 -44.821,-52.326 l -24.86089,-25.16947 -7.35626,-15.32833 c -8.50977,-17.73191 -15.29674,-36.89614 -15.29674,-43.19309 v -4.3737 l 8.94178,5.46788 c 14.42669,8.82187 23.77995,16.45553 41.8404,34.148 22.01369,21.56515 34.75058,37.72514 48.34246,61.33473 10.99207,19.09359 22.30699,48.36612 24.83628,64.25326 0.49078,3.08276 1.56309,6.16115 2.38291,6.84085 0.81983,0.67972 8.64401,2.22815 17.38709,3.44094 16.56583,2.29791 36.34703,7.95194 47.68952,13.63101 20.98098,10.50496 46.09209,32.89373 59.18683,52.77026 8.1005,12.2958 18.30864,32.78444 18.30864,36.74707 0,4.28544 -3.12657,6.64981 -7.38136,5.58192 -4.92994,-1.23733 -8.3467,0.22691 -11.10208,4.75777 -1.97664,3.25034 -2.15641,4.76036 -1.01104,8.49233 0.8765,2.85591 2.23295,4.53906 3.65803,4.53906 1.24572,0 3.01147,0.89949 3.92386,1.99885 2.1632,2.6065 -2.8546,10.06425 -13.02653,19.36082 -11.77794,10.76439 -27.65972,17.68364 -49.90693,21.74306 -12.1623,2.21925 -44.54826,2.59014 -54.89127,0.62863 -5.50346,-1.04371 -7.68624,-0.9027 -10.77848,0.69637 -2.13261,1.10282 -3.88912,2.13884 -3.90333,2.30228 -1.33265,15.31243 -4.49661,30.41909 -7.93208,37.87243 -6.56113,14.23454 -21.24154,31.96626 -44.49026,53.7375 -23.44599,21.95597 -27.76529,27.57352 -26.47782,34.43631 1.14487,6.10269 3.32905,7.62098 20.6707,14.36876 20.18284,7.85332 44.04954,19.91241 51.31627,25.9285 11.36944,9.41272 14.5712,23.43446 6.78983,29.73542 -5.54926,4.49352 -12.74966,2.57991 -41.01671,-10.90081 -14.15253,-6.74944 -35.56784,-16.6332 -47.58957,-21.96392 -35.20237,-15.60957 -53.45164,-26.55269 -55.07644,-33.02641 -0.40405,-1.60988 1.44272,-7.37337 4.48221,-13.9883 5.582,-12.14823 9.91096,-24.57411 12.22654,-35.09508 2.04527,-9.29282 -0.20046,-15.96622 -6.01915,-17.88656 -4.651,-1.53498 -9.56199,-0.31648 -12.37233,3.06979 -0.92118,1.10994 -5.58263,9.92925 -10.35879,19.59845 -15.7247,31.83428 -27.26209,39.71586 -67.33703,46.00023 -4.00887,0.62865 -7.28887,0.90711 -7.28887,0.6188 0,-0.28832 2.34996,-4.81799 5.22213,-10.06595 8.90558,-16.27209 11.96254,-28.17057 11.98217,-46.63781 0.0123,-11.58781 -0.65234,-18.23512 -2.45046,-24.50711 -8.39096,-29.2682 -26.32504,-49.8851 -53.1704,-61.12432 -8.08277,-3.38397 -12.96276,-4.41605 -26.17173,-5.53509 l -16.2364,-1.3755 -3.9654,3.7991 c -2.86274,2.74267 -3.9654,5.0362 -3.9654,8.24795 0,7.03919 4.38124,10.36231 16.01128,12.14439 19.64304,3.00993 31.68465,8.34824 43.26345,19.17963 24.95598,23.34509 25.92385,58.03759 2.59154,92.89056 -12.45438,18.60391 -24.58331,29.68645 -41.99564,38.37258 -4.00725,1.99901 -9.13469,5.39125 -11.39431,7.53831 -4.11534,3.91034 -4.27036,4.77796 -2.46652,13.80508 0.85452,4.27633 6.25048,5.85287 20.21552,5.90634 46.75761,0.17904 82.30757,7.5513 95.95789,19.89947 l 5.6512,5.11212 -10.59767,-0.25651 c -5.82872,-0.14109 -46.66288,-0.56373 -90.74257,-0.9392 z M 849.72751,393.48383 c 5.14541,-3.18003 6.92657,-6.62767 7.93441,-15.358 0.72473,-6.27796 0.47297,-7.05345 -3.97813,-12.25355 -4.62961,-5.40866 -4.96212,-5.55122 -12.92802,-5.54272 -16.22551,0.0173 -25.03039,12.01825 -18.44065,25.13434 4.96106,9.87437 18.16251,13.73668 27.41239,8.01993 z"
       id="path3" />
    <path
       style="fill:#2e9cdf;fill-opacity:1;stroke:#2e9cdf;stroke-width:2.325;stroke-dasharray:none;stroke-opacity:1"
       d="m 317.64089,604.65949 c -23.94882,-5.80598 -42.15451,-24.95132 -42.30585,-44.48939 -0.0706,-9.11039 5.17027,-19.79612 12.21021,-24.89583 4.6537,-3.37112 6.86463,-4.06599 12.93721,-4.06599 4.02834,0 9.22298,0.68659 11.54363,1.52575 l 4.21937,1.52574 0.74533,13.37723 c 0.89835,16.12382 4.35552,29.97259 11.50082,46.07024 2.93427,6.61062 5.33504,12.24208 5.33504,12.51438 0,1.05417 -8.96146,0.18928 -16.18576,-1.56213 z"
       id="path4" />
  </g>
</svg>
